<svg width="24" height="25" viewBox="0 0 24 25" fill="none" xmlns="http://www.w3.org/2000/svg">
<mask id="mask0_1_938" style="mask-type:alpha" maskUnits="userSpaceOnUse" x="0" y="0" width="24" height="25">
<rect y="0.5" width="24" height="24" fill="#D9D9D9"/>
</mask>
<g mask="url(#mask0_1_938)">
<path d="M5 21.5C4.45 21.5 3.97917 21.3042 3.5875 20.9125C3.19583 20.5208 3 20.05 3 19.5V5.5C3 4.95 3.19583 4.47917 3.5875 4.0875C3.97917 3.69583 4.45 3.5 5 3.5H9.175C9.35833 2.91667 9.71667 2.4375 10.25 2.0625C10.7833 1.6875 11.3667 1.5 12 1.5C12.6667 1.5 13.2625 1.6875 13.7875 2.0625C14.3125 2.4375 14.6667 2.91667 14.85 3.5H19C19.55 3.5 20.0208 3.69583 20.4125 4.0875C20.8042 4.47917 21 4.95 21 5.5V19.5C21 20.05 20.8042 20.5208 20.4125 20.9125C20.0208 21.3042 19.55 21.5 19 21.5H5ZM5 19.5H19V5.5H17V8.5H7V5.5H5V19.5ZM12 5.5C12.2833 5.5 12.5208 5.40417 12.7125 5.2125C12.9042 5.02083 13 4.78333 13 4.5C13 4.21667 12.9042 3.97917 12.7125 3.7875C12.5208 3.59583 12.2833 3.5 12 3.5C11.7167 3.5 11.4792 3.59583 11.2875 3.7875C11.0958 3.97917 11 4.21667 11 4.5C11 4.78333 11.0958 5.02083 11.2875 5.2125C11.4792 5.40417 11.7167 5.5 12 5.5Z" fill="#222222"/>
</g>
</svg>
