<svg width="24" height="25" viewBox="0 0 24 25" fill="none" xmlns="http://www.w3.org/2000/svg">
<mask id="mask0_1_280" style="mask-type:alpha" maskUnits="userSpaceOnUse" x="0" y="0" width="24" height="25">
<rect y="0.5" width="24" height="24" fill="#D9D9D9"/>
</mask>
<g mask="url(#mask0_1_280)">
<path d="M21.025 11.55V19.5C21.025 20.05 20.8292 20.5208 20.4375 20.9125C20.0458 21.3042 19.575 21.5 19.025 21.5H5.025C4.475 21.5 4.00416 21.3042 3.6125 20.9125C3.22083 20.5208 3.025 20.05 3.025 19.5V11.55C2.64166 11.2 2.34583 10.75 2.1375 10.2C1.92916 9.65 1.925 9.05 2.125 8.4L3.175 5C3.30833 4.56667 3.54583 4.20833 3.8875 3.925C4.22916 3.64167 4.625 3.5 5.075 3.5H18.975C19.425 3.5 19.8167 3.6375 20.15 3.9125C20.4833 4.1875 20.725 4.55 20.875 5L21.925 8.4C22.125 9.05 22.1208 9.64167 21.9125 10.175C21.7042 10.7083 21.4083 11.1667 21.025 11.55ZM14.225 10.5C14.675 10.5 15.0167 10.3458 15.25 10.0375C15.4833 9.72917 15.575 9.38333 15.525 9L14.975 5.5H13.025V9.2C13.025 9.55 13.1417 9.85417 13.375 10.1125C13.6083 10.3708 13.8917 10.5 14.225 10.5ZM9.725 10.5C10.1083 10.5 10.4208 10.3708 10.6625 10.1125C10.9042 9.85417 11.025 9.55 11.025 9.2V5.5H9.075L8.525 9C8.45833 9.4 8.54583 9.75 8.7875 10.05C9.02916 10.35 9.34166 10.5 9.725 10.5ZM5.275 10.5C5.575 10.5 5.8375 10.3917 6.0625 10.175C6.2875 9.95833 6.425 9.68333 6.475 9.35L7.025 5.5H5.075L4.075 8.85C3.975 9.18333 4.02916 9.54167 4.2375 9.925C4.44583 10.3083 4.79166 10.5 5.275 10.5ZM18.775 10.5C19.2583 10.5 19.6083 10.3083 19.825 9.925C20.0417 9.54167 20.0917 9.18333 19.975 8.85L18.925 5.5H17.025L17.575 9.35C17.625 9.68333 17.7625 9.95833 17.9875 10.175C18.2125 10.3917 18.475 10.5 18.775 10.5ZM5.025 19.5H19.025V12.45C18.9417 12.4833 18.8875 12.5 18.8625 12.5H18.775C18.325 12.5 17.9292 12.425 17.5875 12.275C17.2458 12.125 16.9083 11.8833 16.575 11.55C16.275 11.85 15.9333 12.0833 15.55 12.25C15.1667 12.4167 14.7583 12.5 14.325 12.5C13.875 12.5 13.4542 12.4167 13.0625 12.25C12.6708 12.0833 12.325 11.85 12.025 11.55C11.7417 11.85 11.4125 12.0833 11.0375 12.25C10.6625 12.4167 10.2583 12.5 9.825 12.5C9.34166 12.5 8.90416 12.4167 8.5125 12.25C8.12083 12.0833 7.775 11.85 7.475 11.55C7.125 11.9 6.77916 12.1458 6.4375 12.2875C6.09583 12.4292 5.70833 12.5 5.275 12.5H5.1625C5.12083 12.5 5.075 12.4833 5.025 12.45V19.5Z" fill="#222222"/>
</g>
</svg>
