<svg width="24" height="25" viewBox="0 0 24 25" fill="none" xmlns="http://www.w3.org/2000/svg">
<mask id="mask0_1_298" style="mask-type:alpha" maskUnits="userSpaceOnUse" x="0" y="0" width="24" height="25">
<rect y="0.5" width="24" height="24" fill="#D9D9D9"/>
</mask>
<g mask="url(#mask0_1_298)">
<path d="M18 13.5V11.5H22V13.5H18ZM19.2 20.5L16 18.1L17.2 16.5L20.4 18.9L19.2 20.5ZM17.2 8.5L16 6.9L19.2 4.5L20.4 6.1L17.2 8.5ZM5 19.5V15.5H4C3.45 15.5 2.97917 15.3042 2.5875 14.9125C2.19583 14.5208 2 14.05 2 13.5V11.5C2 10.95 2.19583 10.4792 2.5875 10.0875C2.97917 9.69583 3.45 9.5 4 9.5H8L13 6.5V18.5L8 15.5H7V19.5H5ZM11 14.95V10.05L8.55 11.5H4V13.5H8.55L11 14.95ZM14 15.85V9.15C14.45 9.55 14.8125 10.0375 15.0875 10.6125C15.3625 11.1875 15.5 11.8167 15.5 12.5C15.5 13.1833 15.3625 13.8125 15.0875 14.3875C14.8125 14.9625 14.45 15.45 14 15.85Z" fill="#636363"/>
</g>
</svg>
